<svg version="1.1" id="Layer_1" xmlns="http://www.w3.org/2000/svg" xmlns:xlink="http://www.w3.org/1999/xlink" x="0px" y="0px" viewBox="0 0 500 500" style="width: 151px;" xml:space="preserve" data-imageid="meditation-21" imageName="Meditation" class="illustrations_image">
<style type="text/css">
	.st0_meditation-21{fill:#FFB3A9;}
	.st1_meditation-21{fill:#68E1FD;}
	.st2_meditation-21{fill:#FFFFFF;}
	.st3_meditation-21{opacity:0.32;fill:url(#SVGID_1_);enable-background:new    ;}
	.st4_meditation-21{opacity:0.32;fill:url(#SVGID_00000165934131224763451150000003860004486383709369_);enable-background:new    ;}
	.st5_meditation-21{opacity:0.32;fill:url(#SVGID_00000040543443723969983480000014777883874235420842_);enable-background:new    ;}
	.st6_meditation-21{fill:#FFAC99;}
	.st7_meditation-21{fill:#5FAD00;}
	.st8_meditation-21{fill:#297600;}
	.st9_meditation-21{fill:#285687;}
	.st10_meditation-21{fill:#3129A3;}
	.st11_meditation-21{fill:#FF6753;}
	.st12_meditation-21{fill:#D64338;}
</style>
<path id="Base_meditation-21" class="st0_meditation-21" d="M27.9,300l222.7,129.7c2,1.1,4.4,1.1,6.3,0l215.1-124.2c3-1.7,4-5.6,2.3-8.6c-0.6-1-1.4-1.8-2.3-2.3&#10;&#9;L246,164.1c-2-1.1-4.4-1.1-6.3,0l-211.8,125c-3,1.8-4,5.6-2.3,8.6C26.2,298.6,26.9,299.4,27.9,300L27.9,300z"/>
<path id="Carpet_meditation-21" class="st1_meditation-21 targetColor" d="M113.7,317.6l85.8,47.5c4.9,2.7,10.8,2.7,15.7-0.1l161-92.9c3.8-2.2,5-7,2.9-10.7&#10;&#9;c-0.7-1.2-1.8-2.3-3-2.9l-83.2-45.9c-3.3-1.8-7.2-1.8-10.5,0.1l-168.7,97.5c-2.1,1.2-2.9,3.9-1.7,6&#10;&#9;C112.4,316.6,113,317.2,113.7,317.6z" style="fill: rgb(255, 28, 219);"/>
<g id="Wall_Poster_meditation-21">
	<path class="st1_meditation-21 targetColor" d="M373.2,103.6l-1.2,66.6c0,2.3-1.9,4.2-4.3,4.1c0,0,0,0,0,0c-0.6,0-1.2-0.2-1.8-0.4l-56.6-28.2&#10;&#9;&#9;c-1.9-1-3.1-2.9-3.1-5.1l1.2-66.6c0-2.5,2.1-4.5,4.6-4.5c0.7,0,1.4,0.2,2,0.5l56.1,28.6C372.1,99.5,373.2,101.5,373.2,103.6z" style="fill: rgb(255, 28, 219);"/>
	<path class="st2_meditation-21" d="M319.2,96.6c0,0-7.4,20,2.4,30.1s25.6,16,25.6,16S351.8,104.3,319.2,96.6z"/>
	<path class="st2_meditation-21" d="M353.6,129.8c0,0-8.7-10,0-19.6C356.5,116.4,356.5,123.6,353.6,129.8z"/>
	<path class="st2_meditation-21" d="M349.9,147.2c0,0,0.2-13.3,13.1-14.6C361,139.2,356.2,144.5,349.9,147.2z"/>
	<path class="st1_meditation-21 targetColor" d="M347.7,143.9c-1.6-2.1-3.1-4.2-4.6-6.4c0-1.6,0-3.2,0.2-4.8c0.1-1.7,0-3.3-0.1-5c-0.1-0.9-1.5-0.9-1.4,0&#10;&#9;&#9;c0.1,1.7,0.2,3.3,0.1,5c0,0.9-0.1,1.9-0.2,2.8c-2.4-3.4-4.6-6.9-6.8-10.4c0.1-3.9-0.2-7.8-0.8-11.7c-0.1-0.9-1.5-0.5-1.4,0.4&#10;&#9;&#9;c0.5,3,0.7,6,0.7,9c-3.6-6-7-12.2-10-18.5c-0.4-0.8-1.6-0.1-1.2,0.7c1.7,3.5,3.5,7,5.4,10.4l-8-2.4c-0.4-0.1-0.8,0.1-0.9,0.5&#10;&#9;&#9;c0,0,0,0,0,0c-0.1,0.4,0.1,0.8,0.5,0.9l9.2,2.8c0.1,0,0.1,0,0.2,0c2.9,5.2,6,10.2,9.3,15.2c-2.5-0.9-5-1.8-7.5-2.9&#10;&#9;&#9;c-0.8-0.4-1.5,0.8-0.7,1.2c3.1,1.4,6.3,2.6,9.5,3.6l0,0c2.4,3.5,4.8,6.9,7.3,10.3C347.1,145.3,348.3,144.6,347.7,143.9z" style="fill: rgb(255, 28, 219);"/>
</g>
<g id="Shadow_meditation-21">
	
		<linearGradient id="SVGID_1_-meditation-21" gradientUnits="userSpaceOnUse" x1="204.6582" y1="-1792.5513" x2="220.5382" y2="-1815.1411" gradientTransform="matrix(1 0 0 1 0 2101.04)">
		<stop offset="0" style="stop-color:#3129A3;stop-opacity:0"/>
		<stop offset="1" style="stop-color:#FF6753"/>
	</linearGradient>
	<polyline class="st3_meditation-21" points="255.1,285.3 217.1,317.6 176.4,300.2 243.8,281.4 &#9;"/>
	
		<linearGradient id="SVGID_00000098208985866502262740000009903561004684770448_-meditation-21" gradientUnits="userSpaceOnUse" x1="96.4492" y1="-1814.7406" x2="116.0492" y2="-1842.6305" gradientTransform="matrix(1 0 0 1 0 2101.04)">
		<stop offset="0" style="stop-color:#FFFFFF;stop-opacity:0"/>
		<stop offset="1" style="stop-color:#FF6753"/>
	</linearGradient>
	
		<polyline style="opacity:0.32;fill:url(#SVGID_00000098208985866502262740000009903561004684770448_);enable-background:new    ;" points="&#10;&#9;&#9;157.5,256.8 90.3,295.4 62.7,277 123.3,243.9 &#9;"/>
	
		<linearGradient id="SVGID_00000101096569426538053590000016895560684525199514_-meditation-21" gradientUnits="userSpaceOnUse" x1="386.2707" y1="-1768.1794" x2="405.8707" y2="-1796.0496" gradientTransform="matrix(1 0 0 1 0 2101.04)">
		<stop offset="0" style="stop-color:#FFFFFF;stop-opacity:0"/>
		<stop offset="1" style="stop-color:#FF6753"/>
	</linearGradient>
	
		<polyline style="opacity:0.32;fill:url(#SVGID_00000101096569426538053590000016895560684525199514_);enable-background:new    ;" points="&#10;&#9;&#9;447.3,303.4 380.1,342 352.6,323.5 401.9,299.1 &#9;"/>
</g>
<g id="Character_meditation-21">
	<path class="st6_meditation-21" d="M237.1,141.7c0,0-11-30.7-9.4-37s15.9-11.8,15.9-11.8c1.7,1.5,2.1,4.1,1,6.1l-8.2,8.5c0,0,10.8,24.5,10.3,29.5&#10;&#9;&#9;S237.1,141.7,237.1,141.7z"/>
	<path class="st6_meditation-21" d="M244.3,94.5c0,0-1.1-2.9,0-8.4s3.8-9.9,5.6-8.9s2.8,11.5,2.8,11.5s-2.8,8.5-5.4,8.9S244.3,94.5,244.3,94.5z"/>
	<path class="st6_meditation-21" d="M245.4,272.7c0,0,0.6,5.5-1.6,8.8s-14,10-12.7,12s8.6,3.1,11.5,2.1s3.4-5,6.4-6.5s6.3-2.8,7.1-5.6&#10;&#9;&#9;c-0.2-2.1-0.6-4.2-1.1-6.2c-0.9-3.1,0-13,0-13S245.7,266.9,245.4,272.7z"/>
	<path class="st7_meditation-21" d="M237.1,175.3c-0.6-0.3-24.9-10.5-32-7.5s-8.1,14.1,2.5,20.2s33.3,20.2,33.3,20.2s3.5,26.4,3.7,28.8&#10;&#9;&#9;s0.7,35.8,0.7,35.8s2.4,2.9,9.9,0c0,0,6-29.9,4.2-37.4c-1.7-6.8-1.6-13.9,0.3-20.6c3.8-12.8,5.2-27.7-2-37.8"/>
	<path class="st6_meditation-21" d="M252.5,134.9c-2.7-2.2-6.1-3.1-9.6-2.7c-2.4,2.3-4.6,4.7-6.6,7.4c0,0.2-0.1,0.3-0.2,0.5&#10;&#9;&#9;c-3.7,5.6-2.7,12.1-1.9,18.4s2,12.6,3.2,18.9c0.3,0.7,0.7,1.3,1.3,1.8c2.6,1.7,11,3.1,19.1-2.3c0,0-0.8-13.1,1.2-20.6&#10;&#9;&#9;S257.2,138.5,252.5,134.9z"/>
	<path class="st8_meditation-21" d="M240.9,208.1l-2.2-14.2c0,0-22.9-14.8-21.6-13.7s21.2,15.5,21.2,15.5L240.9,208.1z"/>
	<path class="st6_meditation-21" d="M248.7,100.8c-1.1-1.9-1.8-4-2-6.2c0-2.7,1.3-10.6,2-12s1.8-1.8,2.4-1.1s1.9,8.7,2.1,10.4s0,7.5,0,7.5"/>
	<path class="st6_meditation-21" d="M247.3,97.6l-4.4,3.2c0,0-2.8-4.8-2.3-6.3l4.2-2.7"/>
	<path class="st9_meditation-21" d="M252.5,134.9l-7.1-2.7c0,0-7.2,7.4-10.6,10.3c-2.7,5.9-1.4,10.9-0.5,17c1.5,0.6,2.9,1.1,4.5,1.5&#10;&#9;&#9;c3.7,1.4,7.6,2.4,11.6,3c1.3,0.2,7.3,0.1,7.6-1.6l1-6.2L252.5,134.9z"/>
	<path class="st6_meditation-21" d="M240.4,122.2c-0.1,0.3-0.4,10.9,3.2,11.9s9.7-1.5,11.3-4.8s-0.7-14-6.3-14.6S241.4,119.2,240.4,122.2z"/>
	<path class="st10_meditation-21" d="M240.4,122.2c-1.5-0.8-2.4-2.5-2.2-4.2c0.3-4.4,4-7.8,8.4-7.8c5.4-0.1,13.5,3.9,12.3,12.7s-6.8,9.2-6.8,9.2&#10;&#9;&#9;s1.3-5.3,0.8-7.7s-1.1-4.9-1.1-4.6s0.1,3.3,0.1,3.3c-1.4,0.1-2.7,0.1-4.1,0c-0.2-0.2-1.2-3.6-1.2-3.6v3.6L240.4,122.2z"/>
	<path class="st6_meditation-21" d="M252.5,125.7c0,0,0.8-4.6,2.3-3.6c1.5,1,1.1,4.6-1.8,5.6"/>
	<path class="st10_meditation-21" d="M262.7,164.4c0.3,1.5,1.1,2.7,2.3,3.6c2.5,1.8,6,1.2,7.8-1.3c0.3-0.5,0.6-1,0.8-1.5&#10;&#9;&#9;c-0.4-11.8-9.7-35.2-10.6-36.4l-8.1,0.6c3.9,5.3,5.8,11.9,6.7,18.4c0.4,3.2,0.7,6.3,0.8,9.5C262.3,159.7,262.4,162,262.7,164.4z"/>
	<path class="st6_meditation-21" d="M258.1,120.8c0,0-7.4-11-9.4-20.1s1-6.7,3.8-3.2s14.8,15.7,15.7,20.7c0.5,3.2-6.5,26.3-9.2,36.2&#10;&#9;&#9;c-5.6,1.1-6.9-12.9-6.9-19.3C254.8,130.7,256.8,125.9,258.1,120.8z"/>
</g>
<g id="Plant_meditation-21">
	<polyline class="st11_meditation-21" points="118.1,225.9 118.1,251.2 159.2,251.2 159.2,225.9 &#9;"/>
	<ellipse class="st12_meditation-21" cx="138.7" cy="225.9" rx="20.5" ry="10.1"/>
	<ellipse class="st11_meditation-21" cx="138.7" cy="252.2" rx="20.5" ry="10.1"/>
	<path class="st8_meditation-21" d="M161.6,166.9c-4.3-1.8-10.3-7.7-15.6-7.5c-2,4.9-2.6,10.6-3.2,15.6c-1,8.6-1.2,17.3-0.6,26&#10;&#9;&#9;c0.1,1.9,0.3,3.9,0.5,5.8c0.1,0.6,0.2,1.1,0.5,1.6v20.1c0,0.4,0.4,0.6,0.7,0.6c0,0,0,0,0,0c0.3,0,0.5-0.3,0.5-0.6v-19.3&#10;&#9;&#9;c2.1-0.7,4-1.6,5.9-2.7c3.9-2.4,6.8-6.1,8.3-10.4c3.3-9.2,1.2-19.5,4.4-28.6C162.6,167.2,162.1,167.1,161.6,166.9z"/>
	<path class="st7_meditation-21" d="M152.8,151.8c-2.5,1.4-4.5,3.5-5.9,6c-0.4,0.6-0.7,1.2-0.9,1.8l-0.2,0.4l0,0c-0.4,1-0.7,2.1-1,3.2&#10;&#9;&#9;c0.5-0.8,1.3-1.4,2.2-1.7c1.1-0.5,2.3-0.6,3.4-0.3c1.1,0.4,2.2,1,3.1,1.7c1.4,0.9,2.9,1.9,4.3,2.8c6.8,4.3,15.9,4.8,21.1-1.5&#10;&#9;&#9;c0-0.3,0.1-0.5,0.2-0.8C179.9,158.9,167.8,143,152.8,151.8z"/>
	<path class="st8_meditation-21" d="M176,166.7c0.3-0.2,0.6-0.4,0.9-0.6c0-0.2,0-0.4-0.2-0.5c-4.1-4.2-8.5-8.4-14.1-10.4c-4-1.5-8.4-2-12.6-1.2&#10;&#9;&#9;c-0.5,0.5-0.9,1.1-1.3,1.6c4.6-1.5,10.4-0.6,14.5,1.2c5,2.1,8.9,5.9,12.6,9.7C175.8,166.6,175.9,166.7,176,166.7z"/>
	<path class="st8_meditation-21" d="M107.1,175.9c-6.1,3.2-9.7,9.6-9.2,16.4c0.5,12.1,20.4,0.3,25.7-9.9s6.1,4.4,6.1,4.4"/>
	<path class="st7_meditation-21" d="M125,171.6c-3.7-0.1-7.4,0.5-11,1.5c-2.4,0.6-4.7,1.5-6.9,2.7c1.3,0.8,2.6,1.6,4,2.1c2.5,1,5.1,2.3,6.4,4.6&#10;&#9;&#9;c0.3,0.6,0.6,1.2,0.8,1.8c1.2,4,0.2,8.8,1.8,12.8s5,7.6,9.7,7.8c5.6,0.3,8.2-5.1,9.3-9.7s2.6-11.1,0.9-15.9&#10;&#9;&#9;C137.9,173.9,130.4,171.9,125,171.6z"/>
	<path class="st8_meditation-21" d="M132.4,190.5c-2.4-7.6-7.4-14.9-14.7-18.2h-0.3l-0.3,0.1l-1.3,0.3c8.5,3.2,13.9,11.6,16.1,20.2&#10;&#9;&#9;c2.8,11,1.9,22.9,1.9,34.1c0,0.3,0.2,0.6,0.5,0.7c0.3,0,0.6-0.2,0.7-0.5c0-0.1,0-0.1,0-0.2C134.9,215.1,136.1,202.2,132.4,190.5z"/>
</g>
<g id="Tripod_meditation-21">
	<path class="st9_meditation-21" d="M410.5,278.7c-0.8,0-1.6-0.2-2.3-0.5l-0.4,2.3l37,1v-2.8L410.5,278.7z"/>
	<path class="st9_meditation-21" d="M408.3,278.3l-0.3,2.2l20.4,11.8v-2.8C421.5,286.1,414.8,282.2,408.3,278.3z"/>
	<path class="st9_meditation-21" d="M428.9,118.8c-1.2,0.2-2.5,0-3.6-0.5l-23.4,180.8c1.4,0.9,2.9,1.6,4.3,2.5l23.7-182.9L428.9,118.8z"/>
	<path class="st9_meditation-21" d="M434.3,118.6c-0.9,0.1-1.7,0.1-2.6,0c-0.7,0-1.4,0-2.1,0.1l15.8,185.4c1.2-0.6,2.5-1.1,3.7-1.6l0.6-0.3h0.1&#10;&#9;&#9;L434.3,118.6z"/>
	<path class="st9_meditation-21" d="M431.7,118.6c-0.9,0-1.9,0.1-2.8,0.2c-0.4,0-0.7,0-1.1,0l-1.5,196l0,0c0.8-0.3,1.7-0.3,2.5-0.2h1.4l0.8-0.1&#10;&#9;&#9;l1.5-195.8L431.7,118.6z"/>
	<path class="st11_meditation-21" d="M406.1,121.7v40.5c0,0,46.6,1.4,46.6,0v-40.5"/>
	<ellipse class="st12_meditation-21" cx="429.4" cy="121.7" rx="23.3" ry="10.8"/>
	<ellipse class="st11_meditation-21" cx="429.4" cy="162.9" rx="23.3" ry="10.8"/>
</g>
</svg>