<svg version="1.1" id="Layer_1" xmlns="http://www.w3.org/2000/svg" xmlns:xlink="http://www.w3.org/1999/xlink" x="0px" y="0px" viewBox="0 0 500 500" style="width: 151px;" xml:space="preserve" data-imageid="meditation-56" imageName="Meditation" class="illustrations_image">
<style type="text/css">
	.st0_meditation-56{fill:#FFC9B0;}
	.st1_meditation-56{fill:#093F68;}
	.st2_meditation-56{fill:#68E1FD;}
	.st3_meditation-56{fill:#725858;}
	.st4_meditation-56{fill:#70CC40;}
	.st5_meditation-56{fill:#F56132;}
	.st6_meditation-56{fill:#FFBC0E;}
</style>
<g id="character_meditation-56">
	<path class="st0_meditation-56" d="M234.1,263.3c-7.2-4.6-22.8-20.4-27.4-13.3c-24,37.4-55.9,79-65.3,85.6c0,0-12.1-8.9-14.5-8&#10;&#9;&#9;c-5.2,2,1.5,10.2,1.5,10.2c-6.3-1.1-19.3-1.5-16.7,9.1c2,8.3,28,11.3,30,11.3c13.1,0,31-11.6,55.2-43.5&#10;&#9;&#9;c15.9-21,29.4-40.5,29.9-41.4C231.5,266.1,241.2,267.9,234.1,263.3z"/>
	<path class="st1_meditation-56" d="M141.7,360.1c-0.3,0-29.3-2.4-31.8-12.7c-0.9-3.5-0.3-6.4,1.6-8.5c3-3.3,8.8-3.7,13.1-3.4&#10;&#9;&#9;c-1.1-2-1.9-4.4-1.4-6.5c0.4-1.5,1.5-2.7,3-3.2c2.1-0.8,7.2,1.7,15.2,7.4c10.5-8.7,41.2-49.3,63.7-84.3c0.9-1.4,2.3-2.3,3.9-2.6&#10;&#9;&#9;c5.4-0.9,13.1,5.2,19.9,10.6c2.4,1.9,4.6,3.6,6.2,4.7l0,0c1.8,1.1,3.5,2.4,3.4,4.3s-1.8,2.6-3.6,3.4c-2,0.9-4.7,2.2-6.4,4.9&#10;&#9;&#9;c-0.5,0.8-13.9,20.3-30,41.5C176.2,345.2,157.1,360.1,141.7,360.1z M122.4,339.1c-3.4,0-6.6,0.6-8.1,2.2c-1,1.1-1.3,2.8-0.7,5.1&#10;&#9;&#9;c1.5,6.2,24.3,9.9,28.2,9.9c14.2,0,32.3-14.4,53.8-42.8c16-21.1,29.3-40.5,29.8-41.3c2.3-3.6,5.8-5.2,8-6.3l0.8-0.4&#10;&#9;&#9;c-0.2-0.2-0.6-0.4-1.1-0.7l0,0c-1.8-1.2-4.1-3-6.5-4.9c-5.3-4.2-13.2-10.5-16.9-9.9c-0.6,0.1-1.1,0.4-1.4,0.9&#10;&#9;&#9;c-24,37.3-55.9,79.1-65.8,86.1c-0.7,0.5-1.5,0.5-2.2,0c-5-3.6-11.2-7.6-12.9-7.7c-0.5,0.2-0.5,0.4-0.6,0.6c-0.4,1.5,1.6,4.8,3,6.6&#10;&#9;&#9;c0.6,0.8,0.5,2-0.4,2.6c-0.4,0.3-0.9,0.4-1.4,0.4C126.2,339.3,124.3,339.1,122.4,339.1z"/>
	<path class="st1_meditation-56" d="M137.1,351.1h-0.2c-4.7-0.5-8-2.2-9.7-5c-2.5-4.1-0.6-8.9-0.5-9c0.4-1,1.4-1.5,2.4-1.1c1,0.4,1.5,1.4,1.1,2.4&#10;&#9;&#9;c0,0,0,0.1,0,0.1c0,0.1-1.2,3.3,0.2,5.7c1.1,1.8,3.4,2.9,6.9,3.2c1,0.1,1.7,1.1,1.6,2.1C138.7,350.5,138,351.1,137.1,351.1&#10;&#9;&#9;L137.1,351.1z"/>
	<path class="st0_meditation-56" d="M264.2,263.3c7.2-4.6,22.8-20.4,27.4-13.3c24,37.4,55.9,79,65.3,85.6c0,0,12.1-8.9,14.5-8&#10;&#9;&#9;c5.2,2-1.5,10.2-1.5,10.2c6.3-1.1,19.3-1.5,16.7,9.1c-2,8.3-28,11.3-30,11.3c-13.1,0-31-11.6-55.2-43.5&#10;&#9;&#9;c-15.9-21-29.4-40.5-29.9-41.4C266.8,266.1,257,267.9,264.2,263.3z"/>
	<path class="st1_meditation-56" d="M356.5,360.1c-15.4,0-34.5-14.9-56.7-44.3c-16-21.2-29.5-40.7-30-41.5c-1.8-2.7-4.5-4-6.5-4.9&#10;&#9;&#9;c-1.8-0.8-3.5-1.6-3.6-3.4s1.6-3.1,3.4-4.3l0,0c1.6-1.1,3.9-2.8,6.2-4.7c6.8-5.4,14.5-11.5,19.9-10.6c1.6,0.3,3,1.2,3.9,2.6&#10;&#9;&#9;c22.5,35.1,53.2,75.6,63.7,84.3c7.9-5.7,13-8.2,15.2-7.4c1.5,0.5,2.6,1.7,3,3.2c0.5,2.1-0.3,4.5-1.4,6.5c4.3-0.3,10,0.1,13.1,3.4&#10;&#9;&#9;c2,2.1,2.5,5,1.6,8.5C385.9,357.7,356.8,360.1,356.5,360.1z M264.1,265.6l0.8,0.4c2.3,1,5.7,2.6,8,6.3c0.5,0.8,13.9,20.2,29.9,41.3&#10;&#9;&#9;c21.5,28.4,39.6,42.8,53.7,42.8c3.9,0,26.7-3.7,28.2-9.9c0.6-2.3,0.3-3.9-0.7-5.1c-2.4-2.6-9-2.6-13.8-1.8c-1,0.2-2-0.6-2.1-1.6&#10;&#9;&#9;c-0.1-0.5,0.1-1,0.4-1.4c1.5-1.8,3.4-5.1,3-6.6c0-0.1-0.1-0.4-0.6-0.6c-1.7,0.2-8,4.1-12.9,7.7c-0.7,0.5-1.5,0.5-2.2,0&#10;&#9;&#9;c-9.8-7-41.8-48.8-65.8-86.1c-0.3-0.5-0.8-0.8-1.4-0.9c-3.7-0.6-11.7,5.7-17,9.9c-2.4,1.9-4.7,3.7-6.5,4.9&#10;&#9;&#9;C264.7,265.1,264.4,265.4,264.1,265.6z"/>
	<path class="st1_meditation-56" d="M361.2,351.1c-1,0-1.8-0.9-1.8-2c0-0.9,0.7-1.7,1.6-1.8c3.5-0.4,5.8-1.4,6.9-3.2c1.5-2.5,0.2-5.7,0.2-5.7&#10;&#9;&#9;c-0.4-1,0.1-2,1.1-2.4c0.9-0.3,2,0.1,2.4,1c0.1,0.2,2,5-0.5,9c-1.7,2.8-5,4.5-9.7,5L361.2,351.1z"/>
	<path class="st2_meditation-56 targetColor" d="M345.9,365c0,0-31.3,7.7-49.4-19h-94.9c-18.2,26.6-49.4,19-49.4,19l98.2,36.4L345.9,365z" style="fill: rgb(104, 225, 253);"/>
	<path class="st1_meditation-56" d="M250.4,403.4c-0.2,0-0.4,0-0.6-0.1l-98.2-36.5c-1-0.4-1.5-1.4-1.1-2.4c0.3-0.9,1.3-1.4,2.2-1.2&#10;&#9;&#9;c1.2,0.3,30.2,7,47.4-18.2c0.3-0.5,0.9-0.8,1.6-0.8h94.9c0.6,0,1.2,0.3,1.5,0.8c17.2,25.2,46.2,18.5,47.5,18.2c1-0.3,2,0.3,2.3,1.3&#10;&#9;&#9;c0.3,1-0.3,2-1.2,2.3l-95.5,36.4C250.8,403.3,250.6,403.4,250.4,403.4z M165,367.8l85.4,31.7l83-31.6c-11-0.5-26.7-4.2-37.9-19.9&#10;&#9;&#9;h-92.9C191.5,363.5,176,367.3,165,367.8z"/>
	<path class="st2_meditation-56 targetColor" d="M110.6,384.3c0,14.4,11.7,26.2,26.1,26.2c0,0,0,0,0,0h90.1v-28.9l-86.7-23.1c-14.3-1.9-27.5,8.2-29.4,22.5&#10;&#9;&#9;C110.7,382,110.6,383.2,110.6,384.3z" style="fill: rgb(104, 225, 253);"/>
	<path class="st1_meditation-56" d="M226.9,412.4h-90.1c-15.5,0-28-12.5-28.1-27.9c0-8.1,3.5-15.8,9.6-21.2c6.1-5.3,14.2-7.8,22.2-6.7h0.2&#10;&#9;&#9;l86.7,23.1c0.8,0.2,1.4,1,1.4,1.8v28.9C228.8,411.5,228,412.3,226.9,412.4C226.9,412.3,226.9,412.4,226.9,412.4z M136.8,360.1&#10;&#9;&#9;c-13.4,0-24.3,10.9-24.3,24.3c0,13.4,10.9,24.3,24.3,24.3c0,0,0,0,0,0H225V383l-85.2-22.7C138.8,360.1,137.8,360.1,136.8,360.1&#10;&#9;&#9;L136.8,360.1z"/>
	<path class="st2_meditation-56 targetColor" d="M224.2,240.8h48.3c13.7,0,24.8,11.1,24.8,24.8v61.8l0,0h-96.4l0,0v-63.2C200.8,251.3,211.3,240.8,224.2,240.8&#10;&#9;&#9;C224.2,240.8,224.2,240.8,224.2,240.8z" style="fill: rgb(104, 225, 253);"/>
	<path class="st1_meditation-56" d="M297.2,329.3h-96.4c-1,0-1.9-0.8-1.9-1.9v-61.3c0-15,12.2-27.1,27.2-27.2h45.7c15,0,27.2,12.2,27.2,27.2v61.3&#10;&#9;&#9;C299.1,328.5,298.2,329.3,297.2,329.3z M202.7,325.5h92.6v-59.4c0-12.9-10.5-23.4-23.5-23.4h-45.7c-12.9,0-23.4,10.5-23.5,23.4&#10;&#9;&#9;V325.5z"/>
	<circle class="st3_meditation-56" cx="205.3" cy="128.9" r="39.4"/>
	<path class="st1_meditation-56" d="M205.3,170.2c-22.8,0-41.3-18.5-41.3-41.3c0-22.8,18.5-41.3,41.3-41.3s41.3,18.5,41.3,41.3c0,0,0,0,0,0.1&#10;&#9;&#9;C246.5,151.8,228,170.2,205.3,170.2z M205.3,91.4c-20.7,0-37.6,16.8-37.6,37.6c0,20.7,16.8,37.6,37.6,37.6&#10;&#9;&#9;c20.7,0,37.5-16.8,37.6-37.5C242.8,108.2,226,91.4,205.3,91.4z"/>
	<path class="st3_meditation-56" d="M247.1,106.3h0.1c31.2,0,56.6,25.3,56.6,56.6v11.5c0,14.5-11.8,26.3-26.3,26.3h-60.6&#10;&#9;&#9;c-14.5,0-26.3-11.8-26.3-26.3c0,0,0,0,0,0v-11.5C190.6,131.6,215.9,106.3,247.1,106.3z"/>
	<path class="st1_meditation-56" d="M303.8,202.5H190.6c-1,0-1.9-0.8-1.9-1.9c0,0,0,0,0,0v-37.7c0-32.3,26.2-58.5,58.5-58.5s58.5,26.2,58.5,58.5&#10;&#9;&#9;v37.7C305.7,201.7,304.9,202.5,303.8,202.5C303.8,202.5,303.8,202.5,303.8,202.5z M192.5,198.8H302v-35.9&#10;&#9;&#9;c0-30.2-24.5-54.8-54.8-54.8s-54.8,24.5-54.8,54.8l0,0L192.5,198.8z"/>
	<path class="st0_meditation-56" d="M240.8,238.7h16.4l0,0v12.7c0,2.1-1.7,3.7-3.7,3.7h-9c-2.1,0-3.7-1.7-3.7-3.7L240.8,238.7L240.8,238.7z"/>
	<path class="st1_meditation-56" d="M250.3,257h-2.5c-4.9,0-8.9-4-8.9-8.9v-9.5c0-1,0.8-1.9,1.9-1.9h16.5c1,0,1.9,0.8,1.9,1.9v9.5&#10;&#9;&#9;C259.1,253,255.2,257,250.3,257z M242.7,240.6v7.6c0,2.8,2.3,5.1,5.1,5.1h2.5c2.8,0,5.1-2.3,5.1-5.1v-7.6H242.7z"/>
	<ellipse class="st0_meditation-56" cx="202" cy="196" rx="16" ry="13.8"/>
	<path class="st1_meditation-56" d="M202,211.6c-9.8,0-17.9-7-17.9-15.6s8-15.6,17.9-15.6s17.9,7,17.9,15.6S211.9,211.6,202,211.6z M202,184.1&#10;&#9;&#9;c-7.8,0-14.1,5.3-14.1,11.9s6.3,11.9,14.1,11.9s14.1-5.3,14.1-11.9S209.8,184.1,202,184.1z"/>
	<ellipse class="st0_meditation-56" cx="295.2" cy="196" rx="16" ry="13.8"/>
	<path class="st1_meditation-56" d="M295.2,211.6c-9.8,0-17.9-7-17.9-15.6s8-15.6,17.9-15.6s17.8,7,17.8,15.7S305,211.6,295.2,211.6z M295.2,184.1&#10;&#9;&#9;c-7.8,0-14.1,5.3-14.1,11.9s6.3,11.9,14.1,11.9s14.1-5.3,14.1-11.9S303,184.1,295.2,184.1z"/>
	<path class="st0_meditation-56" d="M249,240.8L249,240.8c-26.6,0-48.2-21.6-48.2-48.2v-22.3c0-11.6,17.7-33.2,29.3-33.2c0,0,1.9,10.9,20.1,20.5&#10;&#9;&#9;c12.7,6.7,30.7,7.1,47-4.2v39.2C297.2,219.3,275.6,240.8,249,240.8z"/>
	<path class="st1_meditation-56" d="M249,242.7c-27.6-0.1-50-22.4-50-50.1v-22.3c0-12.4,18.3-35.1,31.1-35.1c0.9,0,1.7,0.7,1.8,1.6&#10;&#9;&#9;c0,0.1,2.1,10.2,19.1,19.2c10.8,5.7,28.3,7.6,45.1-4.1c0.6-0.4,1.3-0.5,1.9-0.1c0.6,0.3,1,1,1,1.7v39.2&#10;&#9;&#9;C299.1,220.3,276.7,242.7,249,242.7z M228.7,139.1c-9.5,1.7-26,19.5-26,31.2v22.3c0.4,25.6,21.4,46,47,45.6&#10;&#9;&#9;c25-0.4,45.3-20.6,45.6-45.6v-35.8c-17.3,10.5-34.9,8.3-46,2.4C234.5,151.5,230,142.8,228.7,139.1L228.7,139.1z"/>
	<path class="st1_meditation-56" d="M248.8,202.5c-1.5,0-3-0.1-4.4-0.4c-1-0.2-1.7-1.2-1.5-2.2s1.2-1.7,2.2-1.5c2,0.3,4.1,0.4,6.1,0.1&#10;&#9;&#9;c0-1.6-1.6-5.9-3.7-9.9c-0.5-0.9-0.1-2,0.8-2.5c0.9-0.5,2-0.1,2.5,0.8c2,3.8,5.1,10.6,3.8,13.5c-0.4,0.8-1.1,1.4-1.9,1.6&#10;&#9;&#9;C251.3,202.4,250.1,202.5,248.8,202.5z"/>
	<path class="st1_meditation-56" d="M214.6,175.8c-2.1,0-3.8-1.6-3.8-3.7s1.6-3.8,3.7-3.8l21.3-0.3c2-0.1,3.7,1.6,3.8,3.6c0,0,0,0.1,0,0.1&#10;&#9;&#9;c0,2.1-1.6,3.8-3.7,3.8c0,0,0,0,0,0L214.6,175.8L214.6,175.8z"/>
	<path class="st1_meditation-56" d="M285.5,175.4L285.5,175.4l-21.3-0.1c-2.1,0-3.7-1.7-3.7-3.7c0-2.1,1.7-3.7,3.7-3.7l0,0l21.3,0.1&#10;&#9;&#9;c2.1,0.1,3.7,1.9,3.6,3.9C288.9,173.7,287.4,175.3,285.5,175.4L285.5,175.4z"/>
	<path class="st1_meditation-56" d="M222.9,188.9c-2.6,0-5.2-0.5-7.6-1.6c-0.9-0.5-1.2-1.7-0.7-2.6c0.5-0.8,1.5-1.2,2.3-0.8l0,0&#10;&#9;&#9;c5,2.1,10.7,1.4,15-1.8c0.8-0.6,2-0.4,2.6,0.4s0.4,2-0.4,2.6l0,0C230.8,187.6,226.9,188.8,222.9,188.9z"/>
	<path class="st1_meditation-56" d="M276.5,188.9c-4,0-8-1.3-11.2-3.7c-0.8-0.6-1-1.8-0.4-2.6c0.6-0.8,1.8-1,2.6-0.4l0,0c4.3,3.2,10,3.9,15,1.8&#10;&#9;&#9;c0.9-0.5,2.1-0.1,2.5,0.9s0.1,2.1-0.9,2.5C281.7,188.3,279.1,188.9,276.5,188.9z"/>
	<path class="st1_meditation-56" d="M249.8,218.9c-5.4,0-10.8-0.6-16.1-1.7c-1-0.2-1.6-1.2-1.4-2.2s1.2-1.6,2.2-1.4l0,0c0.2,0,17.9,3.9,29-0.6&#10;&#9;&#9;c1-0.4,2,0.1,2.4,1s-0.1,2-1,2.4C260.3,218.3,254.8,218.9,249.8,218.9z"/>
	<rect x="204.8" y="327.4" class="st0_meditation-56" width="88.5" height="18.5"/>
	<path class="st1_meditation-56" d="M293.3,347.8h-88.5c-1,0-1.7-0.8-1.8-1.8v-18.6c0-1,0.8-1.8,1.8-1.8h88.5c1,0,1.8,0.8,1.8,1.8V346&#10;&#9;&#9;C295.1,347,294.3,347.8,293.3,347.8z M206.6,344.2h84.9v-15h-84.9L206.6,344.2z"/>
	<path class="st0_meditation-56" d="M377.9,384.3c0,14.4-11.7,26.2-26.1,26.2c0,0,0,0,0,0H189.9c-4.6,0.1-8.5-3.4-9-8c-0.3-4.1,2.3-7.8,6.3-9&#10;&#9;&#9;l44.4-19.2c0.7-0.3,1.6-0.2,2.2,0.3l10.9,8.5l16.9-1.6l86.7-23.1c14.3-1.9,27.5,8.2,29.3,22.6C377.8,382.1,377.9,383.2,377.9,384.3&#10;&#9;&#9;z"/>
	<path class="st1_meditation-56" d="M351.8,412.4H189.9c-5.6,0.1-10.4-4.2-10.9-9.8c-0.4-4.9,2.8-9.5,7.5-10.9l44.3-19.1c1.4-0.6,3-0.4,4.2,0.6&#10;&#9;&#9;l10.3,8l16-1.5l86.5-23.1h0.2c15.4-1.8,29.3,9.2,31,24.6s-9.2,29.3-24.6,31C353.6,412.3,352.7,412.4,351.8,412.4L351.8,412.4z&#10;&#9;&#9; M232.4,376c0,0-0.1,0-0.1,0l-44.4,19.2l-0.2,0.1c-1.4,0.4-2.7,1.3-3.6,2.4c-1,1.3-1.5,2.9-1.4,4.6c0.4,3.6,3.5,6.4,7.2,6.3h161.8&#10;&#9;&#9;c13.4,0,24.3-10.9,24.2-24.3c0-13.4-10.9-24.3-24.3-24.2c-1,0-2,0.1-3,0.2l-86.6,23.1c-0.1,0-0.2,0-0.3,0.1l-16.9,1.6&#10;&#9;&#9;c-0.5,0-0.9-0.1-1.3-0.4l-10.9-8.5C232.6,376.1,232.5,376,232.4,376z"/>
	<path class="st2_meditation-56 targetColor" d="M377.9,384.3c0,14.4-11.7,26.2-26.1,26.2c0,0,0,0,0,0h-90.1v-28.9l86.7-23.1c14.3-1.9,27.5,8.2,29.4,22.5&#10;&#9;&#9;C377.8,382,377.9,383.2,377.9,384.3z" style="fill: rgb(104, 225, 253);"/>
	<path class="st1_meditation-56" d="M351.8,412.4h-90.1c-1,0-1.9-0.8-1.9-1.9v-28.9c0-0.8,0.6-1.6,1.4-1.8l86.7-23.1h0.2&#10;&#9;&#9;c15.4-1.8,29.3,9.2,31,24.6s-9.2,29.3-24.6,31C353.6,412.3,352.7,412.4,351.8,412.4L351.8,412.4z M263.5,408.6h88.2&#10;&#9;&#9;c13.4,0,24.3-10.9,24.2-24.3c0-13.4-10.9-24.3-24.3-24.2c-1,0-2,0.1-3,0.2L263.5,383V408.6z"/>
</g>
<g id="line_meditation-56">
	<path class="st1_meditation-56" d="M443.5,412.4H54c-1,0-1.9-0.8-1.9-1.9c0-1,0.8-1.9,1.9-1.9c0,0,0,0,0,0h389.5c1,0,1.9,0.8,1.9,1.9&#10;&#9;&#9;C445.4,411.5,444.6,412.3,443.5,412.4C443.5,412.4,443.5,412.4,443.5,412.4z"/>
</g>
<g id="plant_meditation-56">
	<path class="st4_meditation-56" d="M65.6,383.3c0,0-13.6-27.7-11.6-46.3c0,0,10.9,4.9,16.2,19.5c8,22.3,6.2,26.9,6.2,26.9L65.6,383.3z"/>
	<path class="st1_meditation-56" d="M76.3,385.2L76.3,385.2H65.6c-0.7,0-1.3-0.4-1.7-1c-0.6-1.2-13.8-28.4-11.9-47.4c0.1-0.6,0.4-1.1,0.9-1.4&#10;&#9;&#9;c0.5-0.3,1.2-0.3,1.7-0.1c0.5,0.2,11.7,5.4,17.2,20.6c7.9,21.8,6.5,27.3,6.1,28.2C77.7,384.7,77.1,385.1,76.3,385.2z M66.8,381.4&#10;&#9;&#9;h7.8c0-2.4-0.8-9.1-6.3-24.4c-2.4-6.8-6.8-12.8-12.7-17C55.4,355.8,64.6,376.5,66.8,381.4z"/>
	<path class="st4_meditation-56" d="M72.1,381.9c0,0-10.2-39.4,4.5-65.8c0,0,8.4,9.6,10.4,33c1.7,19-6.1,32.2-6.1,32.2L72.1,381.9z"/>
	<path class="st1_meditation-56" d="M72.1,383.8c-0.9,0-1.6-0.6-1.8-1.4c-0.4-1.6-10.2-40.5,4.6-67.2c0.5-0.9,1.7-1.2,2.6-0.7&#10;&#9;&#9;c0.2,0.1,0.3,0.2,0.4,0.3c0.4,0.4,8.9,10.4,10.9,34.1c1.7,19.3-6,32.8-6.3,33.4c-0.3,0.5-0.9,0.9-1.5,0.9L72.1,383.8L72.1,383.8z&#10;&#9;&#9; M76.8,319.7c-10.6,22.4-4.8,53.1-3.2,60.3l6.2-0.4c4.5-9.4,6.3-19.9,5.4-30.3C83.7,333.1,79.2,323.8,76.8,319.7L76.8,319.7z"/>
	<path class="st4_meditation-56" d="M76.5,380.7c0,0,3.2-26.3,24.4-43.5c0,0,6.3,19.6-11.3,45.8L76.5,380.7z"/>
	<path class="st1_meditation-56" d="M89.6,384.9h-0.3l-13.1-2.3c-1-0.2-1.7-1.1-1.5-2.1c0.1-1.1,3.5-27.3,25.1-44.7c0.5-0.4,1.1-0.5,1.7-0.3&#10;&#9;&#9;c0.6,0.2,1.1,0.6,1.2,1.2c0.3,0.8,6.3,20.8-11.5,47.5C90.8,384.6,90.2,384.9,89.6,384.9z M78.6,379.2l10.1,1.8&#10;&#9;&#9;c12.3-18.9,11.9-34.1,11-40.3C84.3,354.5,79.7,373.4,78.6,379.2L78.6,379.2z"/>
	<polygon class="st5_meditation-56" points="91.1,410.3 64.3,410.3 60.3,377.7 95,377.7 &#9;"/>
	<path class="st1_meditation-56" d="M91.1,412.1H64.3c-0.9,0-1.7-0.7-1.9-1.6l-4-32.6c-0.1-0.5,0.1-1.1,0.5-1.5c0.4-0.4,0.9-0.6,1.4-0.6H95&#10;&#9;&#9;c0.5,0,1,0.2,1.4,0.6c0.4,0.4,0.5,0.9,0.5,1.5l-4,32.6C92.8,411.4,92,412.1,91.1,412.1z M66,408.4h23.4l3.5-28.8H62.4L66,408.4z"/>
</g>
<g id="glass_meditation-56">
	<path class="st6_meditation-56" d="M393,373.8h33.7l0,0v30.7c0,3.3-2.7,6-6,6H399c-3.3,0-6-2.7-6-6V373.8L393,373.8z"/>
	<path class="st1_meditation-56" d="M415.5,412.4h-11.2c-7.2,0-13.1-5.9-13.1-13.1v-25.4c0-1,0.8-1.9,1.9-1.9c0,0,0,0,0,0h33.7&#10;&#9;&#9;c1,0,1.9,0.8,1.9,1.9c0,0,0,0,0,0v25.4C428.6,406.5,422.7,412.3,415.5,412.4z M394.9,375.7v23.6c0,5.2,4.2,9.4,9.4,9.4h11.2&#10;&#9;&#9;c5.2,0,9.4-4.2,9.4-9.4v-23.6H394.9z"/>
	<path class="st1_meditation-56" d="M431.9,398.7h-5.1c-1,0-1.9-0.8-1.9-1.9v-16.7c0-1,0.8-1.9,1.9-1.9h5.1c5.6,0,10.2,4.6,10.2,10.2&#10;&#9;&#9;S437.5,398.7,431.9,398.7L431.9,398.7z M428.6,394.9h3.3c3.6-0.1,6.4-3.2,6.2-6.7c-0.1-3.4-2.8-6.1-6.2-6.2h-3.3V394.9z"/>
</g>
</svg>